<svg width="138" height="131" viewBox="0 0 138 131" fill="none" xmlns="http://www.w3.org/2000/svg">
<g clip-path="url(#clip0_158_221)">
<path d="M0 105.679L89.4447 129.388C89.4447 129.388 109.671 131.388 116.851 130.795C123.512 130.25 136.132 127.829 137.65 125.864C138.601 124.629 133.25 118.044 131.119 116.533C127.512 113.982 115.506 109.278 115.506 109.278L22.3026 92.9963L0 105.679Z" fill="#E8684C"/>
<path d="M64.9077 72.1627L74.1073 87.1276L72.1143 107.603L84.369 108.927" stroke="#1C252C" stroke-width="4" stroke-miterlimit="10"/>
<path d="M32.5987 24.1163L39.8467 14.3374L51.4807 5.7377L59.9148 3.20677L74.9211 0L87.0655 2.02061C87.0655 2.02061 96.341 8.26174 99.3753 10.6203C102.41 12.9788 106.458 18.0407 108.816 22.9301C111.175 27.8196 113.878 38.7847 113.202 44.8534C112.527 50.9221 104.43 64.0802 101.568 67.2801C98.6995 70.4868 91.617 74.866 88.2447 76.0521C84.8725 77.2314 70.2041 79.5968 70.2041 79.5968L58.7356 78.5831L45.5844 73.0178C45.5844 73.0178 36.6468 66.6111 33.9504 62.0596C31.2539 57.508 28.8885 42.1638 28.8885 42.1638C28.8885 42.1638 30.7436 28.8402 32.5987 24.1232V24.1163Z" fill="#E8684C"/>
<path d="M58.7356 45.7016L62.4458 38.6192L66.3215 34.2331L71.8868 31.1988L78.9693 29.8471L86.7276 32.2056L91.1136 37.7709L93.4721 42.9983L94.3204 45.7016L89.5964 50.0808L83.0174 54.0186L75.7694 55.6461L66.9973 54.0186L61.0941 49.9153L58.7356 45.7016Z" fill="white"/>
<path d="M63.2112 58.1839L56.6115 53.5979L53.5289 48.0946L57.8252 39.8881L62.0802 35.0814L68.2041 31.7436L76.0452 30.2471L84.8242 32.9228L89.7274 39.1433L92.2308 44.6879L93.4652 48.6463L87.7137 53.9909L80.7002 58.1839L72.7695 59.97L63.2112 58.1908V58.1839ZM85.4103 50.9083L89.0999 47.4809L88.6516 46.0464L86.4379 41.1363L82.5691 36.2261L75.8383 34.1779L69.5144 35.3848L64.5077 38.1157L61.0044 42.0742L57.8804 48.0326L59.5217 50.9635L64.7215 54.5771L72.7005 56.0598L79.2727 54.584L85.4172 50.9083H85.4103Z" fill="#1C252C"/>
<path d="M99.3754 45.7016L102.582 39.7984L107.472 35.2468L113.54 32.378H119.609L125.347 34.2331L130.74 39.0398L133.774 45.7016L128.719 50.929L121.637 54.9771L116.575 55.646L108.313 54.0185L103.086 50.7566L99.3754 45.7016Z" fill="white"/>
<path d="M104.561 58.1839L98.7202 54.5427L94.079 48.2119L98.0099 40.9708L103.348 36.0055L110.071 32.8263H116.871L123.271 34.8952L129.271 40.2398L133.015 48.4533L126.864 54.8116L119.223 59.177L113.478 59.9424L104.561 58.1839ZM124.498 51.7566L128.464 47.6602L126.133 42.55L121.34 38.2812L116.278 36.6399H110.94L105.527 39.1985L101.086 43.3362L98.6098 47.9016L101.382 51.6876L106.003 54.5703L113.609 56.0736L117.981 55.4875L124.505 51.7635L124.498 51.7566Z" fill="#1C252C"/>
<path d="M68.2111 36.2537L73.2592 37.433L76.3004 40.1363L77.1418 43.8465L76.3004 48.0601L74.1074 51.2669L70.0593 52.6944L65.8526 52.3565L62.7699 50.8531L60.6252 46.3706L65.2319 48.0601L70.0593 46.3706L71.4937 42.4949L70.7351 39.4605L68.2111 36.2537Z" fill="#1C252C"/>
<path d="M109.865 38.9571L113.402 39.9639L116.609 42.4949L117.45 46.3775L116.106 50.2532L113.402 52.2738H108.513L105.141 50.2532L103.623 46.3706L108.513 48.2257L112.395 46.3706L112.506 42.7294L109.865 38.9571Z" fill="#1C252C"/>
<path d="M47.6257 69.5214L51.1428 87.1276L49.1566 107.603L60.6252 111.954" stroke="#1C252C" stroke-width="4" stroke-miterlimit="10"/>
</g>
<defs>
<clipPath id="clip0_158_221">
<rect width="137.76" height="130.912" fill="white"/>
</clipPath>
</defs>
</svg>
